<?xml version="1.0" encoding="UTF-8"?><svg xmlns="http://www.w3.org/2000/svg" viewBox="0 0 20 20"><defs><style>.cls-1{fill:#26a4dd;}</style></defs><title>icons-</title><g id="Layer_2" data-name="Layer 2"><g id="ACQ_BRAND" data-name="ACQ BRAND"><path id="drop-cloud" class="cls-1" d="M18.5,11.34A8.66,8.66,0,0,1,10,20C5,20,1.5,15.47,1.5,11.34,1.5,4.24,8.76,3,9.5,0,10.53,3.11,18.5,3.75,18.5,11.34ZM16.12,12a2.39,2.39,0,0,0-2-2.31V9.53a3,3,0,0,0-3-2.89A3,3,0,0,0,8.4,8.25a1.56,1.56,0,0,0-1-.34A1.48,1.48,0,0,0,5.89,9.35a1.18,1.18,0,0,0,0,.27,2.35,2.35,0,0,0,.36,4.68h7.37A2.4,2.4,0,0,0,16.12,12Z"/></g></g></svg>
