<svg xmlns="http://www.w3.org/2000/svg" viewBox="0 0 24 24" width="24" height="24">
<path d="M12,0C5.38,0,0,5.38,0,12s5.38,12,12,12s12-5.38,12-12S18.62,0,12,0z M12,18.9c-1.46,0-2.65-1.18-2.65-2.65c0-1.46,1.18-2.65,2.65-2.65s2.65,1.18,2.65,2.65C14.65,17.72,13.46,18.9,12,18.9z M13.09,7.57c0.98,0.98,1.47,2.2,1.47,3.53c0,0.65-0.13,1.29-0.38,1.91c-0.24,0.59-0.59,1.14-1.04,1.65c-0.3,0.35-0.69,0.76-1.14,1.23c0,0-0.3-0.31-0.39-0.41c-0.39-0.42-0.67-0.73-0.85-0.94c-0.41-0.48-0.72-0.97-0.93-1.47c-0.24-0.56-0.36-1.14-0.36-1.75c0-0.66,0.13-1.3,0.39-1.91c0.25-0.59,0.61-1.11,1.07-1.57c0.46-0.46,0.98-0.82,1.57-1.07C13.11,5.55,13.74,5.43,14.4,5.43c0.6,0,1.19,0.12,1.76,0.36c0.5,0.21,0.99,0.52,1.47,0.93c0.21,0.18,0.52,0.46,0.94,0.85c0.1,0.09,0.41,0.39,0.41,0.39c-0.47,0.46-0.87,0.84-1.23,1.14c-0.5,0.44-1.06,0.8-1.65,1.04c-0.62,0.25-1.26,0.38-1.91,0.38C13.52,10.52,13.09,9.08,13.09,7.57z" />
</svg>